M48
; DRILL file {KiCad 5.1.5+dfsg1-2build2} date Sat 22 Aug 2020 09:18:13 PM EDT
; FORMAT={-:-/ absolute / inch / decimal}
; #@! TF.CreationDate,2020-08-22T21:18:13-04:00
; #@! TF.GenerationSoftware,Kicad,Pcbnew,5.1.5+dfsg1-2build2
; #@! TF.FileFunction,Plated,1,2,PTH
FMAT,2
INCH
T1C0.0157
T2C0.0315
T3C0.0354
T4C0.0394
T5C0.0400
T6C0.1200
%
G90
G05
T1
X4.7832Y-3.9886
X5.4846Y-3.1908
X5.5453Y-3.1397
X6.0346Y-3.4488
X6.0635Y-4.6765
X6.3875Y-3.8809
X6.4322Y-4.328
T2
X5.1968Y-3.8431
X5.2755Y-3.8431
X5.87Y-3.8333
X6.0629Y-3.8333
X6.3188Y-3.7742
X6.3188Y-4.0695
X4.8936Y-3.847
X4.8936Y-4.247
X5.3936Y-3.2774
X5.3936Y-3.5774
X5.4936Y-3.2774
X5.4936Y-3.5774
X5.5936Y-3.2774
X5.5936Y-3.5774
X5.6936Y-3.2774
X5.6936Y-3.5774
X5.7936Y-3.2774
X5.7936Y-3.5774
X5.8936Y-3.2774
X5.8936Y-3.5774
X5.9936Y-3.2774
X5.9936Y-3.5774
X6.0936Y-3.2774
X6.0936Y-3.5774
X6.1936Y-3.2774
X6.1936Y-3.5774
X6.2936Y-3.2774
X6.2936Y-3.5774
X6.3936Y-3.2774
X6.3936Y-3.5774
X6.4936Y-3.2774
X6.4936Y-3.5774
X6.5936Y-3.2774
X6.5936Y-3.5774
X6.6936Y-3.2774
X6.6936Y-3.5774
X4.5078Y-3.847
X4.5078Y-4.247
X4.5039Y-4.3943
X4.9039Y-4.3943
X5.6298Y-3.7742
X5.6298Y-4.0695
X4.7007Y-3.847
X4.7007Y-4.247
T3
X5.8546Y-4.7093
X5.9546Y-4.7093
X6.5928Y-4.7093
X6.6928Y-4.7093
X6.2188Y-4.7093
X6.3188Y-4.7093
T4
X4.872Y-3.3281
X4.872Y-3.4281
X4.872Y-3.5281
X4.972Y-3.3281
X4.972Y-3.4281
X4.972Y-3.5281
X6.5629Y-3.7959
X6.5629Y-3.8959
X6.5629Y-3.9959
T5
X6.17Y-2.975
X6.27Y-2.975
X6.37Y-2.975
X6.47Y-2.975
X6.57Y-2.975
X6.67Y-2.975
X6.77Y-2.975
X6.87Y-2.975
X6.37Y-4.875
X6.47Y-4.875
X6.57Y-4.875
X6.67Y-4.875
X6.77Y-4.875
X6.87Y-4.875
X5.47Y-4.875
X5.57Y-4.875
X5.67Y-4.875
X5.77Y-4.875
X5.87Y-4.875
X5.97Y-4.875
X6.07Y-4.875
X6.17Y-4.875
X5.11Y-2.975
X5.21Y-2.975
X5.31Y-2.975
X5.41Y-2.975
X5.51Y-2.975
X5.61Y-2.975
X5.71Y-2.975
X5.81Y-2.975
X5.91Y-2.975
X6.01Y-2.975
T6
X4.97Y-2.975
X4.92Y-4.875
X6.97Y-4.675
X6.97Y-3.575
T0
M30
